<?xml version="1.0" encoding="UTF-8" standalone="no"?>
<!DOCTYPE svg PUBLIC "-//W3C//DTD SVG 1.0//EN"
"http://www.w3.org/TR/2001/REC-SVG-20010904/DTD/svg10.dtd">
<svg>
  <defs>
	<pattern id="TextLinesBgPatternss" patternTransform="matrix(1 0 0 1 0 60)" patternUnits="userSpaceOnUse" x="0" y="0" width="1" height="480" viewBox="0 0 1 480" >
	 <line x1="0" y1="0"   x2="0" y2="240"  style="fill:none;stroke:#ffffff;stroke-width:1" />
	 <line x1="0" y1="240" x2="0" y2="480"  style="fill:none;stroke:#eeeeff;stroke-width:1" />
	</pattern>
	<pattern id="Points_ffff00" patternUnits="userSpaceOnUse" x="0" y="0" width="200" height="200" viewBox="0 0 200 200" >
		 <circle cx="0" cy="0" r="30" style="fill:#ffff00;stroke:none;stroke-width:20" />
		 <circle cx="200" cy="0" r="30" style="fill:#ffff00;stroke:none;stroke-width:20" />
		 <circle cx="0" cy="200" r="30" style="fill:#ffff00;stroke:none;stroke-width:20" />
		 <circle cx="200" cy="200" r="30" style="fill:#ffff00;stroke:none;stroke-width:20" />
		 <circle cx="100" cy="100" r="30" style="fill:#ffff00;stroke:none;stroke-width:20" />
	</pattern>
	<pattern id="Points_000000" patternUnits="userSpaceOnUse" x="0" y="0" width="200" height="200" viewBox="0 0 200 200" >
		 <circle cx="0" cy="0" r="30" style="fill:#000000;stroke:none;stroke-width:20" />
		 <circle cx="200" cy="0" r="30" style="fill:#000000;stroke:none;stroke-width:20" />
		 <circle cx="0" cy="200" r="30" style="fill:#000000;stroke:none;stroke-width:20" />
		 <circle cx="200" cy="200" r="30" style="fill:#000000;stroke:none;stroke-width:20" />
		 <circle cx="100" cy="100" r="30" style="fill:#000000;stroke:none;stroke-width:20" />
	</pattern>
	<pattern id="DiagUp200000000" patternUnits="userSpaceOnUse" x="0" y="0" width="200" height="200" viewBox="0 0 200 200" >
		<line x1="0"   y1="200" x2="200" y2="0"   style="fill:none;stroke:#000000;stroke-width:15;stroke-linecap:square" />
		<line x1="0"   y1="100" x2="100" y2="0"   style="fill:none;stroke:#000000;stroke-width:15;stroke-linecap:square" />
		<line x1="100" y1="200" x2="200" y2="100" style="fill:none;stroke:#000000;stroke-width:15;stroke-linecap:square" />
		<line x1="190" y1="210" x2="200" y2="200" style="fill:none;stroke:#000000;stroke-width:15;stroke-linecap:square" />
		<line x1="-10" y1="10"  x2="10"  y2="-10" style="fill:none;stroke:#000000;stroke-width:15;stroke-linecap:square" />
	</pattern>
  </defs>
</svg>
