<?xml version="1.0" encoding="UTF-8" standalone="no"?>
<svg
   xmlns:dc="http://purl.org/dc/elements/1.1/"
   xmlns:cc="http://creativecommons.org/ns#"
   xmlns:rdf="http://www.w3.org/1999/02/22-rdf-syntax-ns#"
   xmlns:svg="http://www.w3.org/2000/svg"
   xmlns="http://www.w3.org/2000/svg"
   xmlns:sodipodi="http://sodipodi.sourceforge.net/DTD/sodipodi-0.dtd"
   xmlns:inkscape="http://www.inkscape.org/namespaces/inkscape"
   version="1.1"
   x="0px"
   y="0px"
   viewBox="0 0 48 60"
   enable-background="new 0 0 48 48"
   xml:space="preserve"
   id="svg2"
   inkscape:version="0.48.0 r9654"
   width="100%"
   height="100%"
   sodipodi:docname="mapsymbol.svg"><metadata
   id="metadata18"><rdf:RDF><cc:Work
       rdf:about=""><dc:format>image/svg+xml</dc:format><dc:type
         rdf:resource="http://purl.org/dc/dcmitype/StillImage" /></cc:Work></rdf:RDF></metadata><defs
   id="defs16" /><sodipodi:namedview
   pagecolor="#ffffff"
   bordercolor="#666666"
   borderopacity="1"
   objecttolerance="10"
   gridtolerance="10"
   guidetolerance="10"
   inkscape:pageopacity="0"
   inkscape:pageshadow="2"
   inkscape:window-width="1280"
   inkscape:window-height="1004"
   id="namedview14"
   showgrid="false"
   inkscape:zoom="5.2166667"
   inkscape:cx="24"
   inkscape:cy="30"
   inkscape:window-x="-8"
   inkscape:window-y="-8"
   inkscape:window-maximized="1"
   inkscape:current-layer="svg2" /><g
   id="bottle_symbol"
   inkscape:label=""
     transform="translate(200.95554,266.3646)"
     style="stroke:#ffffff;stroke-opacity:1;stroke-width:3;stroke-miterlimit:4;stroke-dasharray:none;stroke-linejoin:miter"><g
     
     style="fill:#000000;fill-opacity:1;stroke:#ffffff;stroke-opacity:1"><path
       
       d="m 26.712,6.705 h -5.424 c -0.552,0 -1,-0.448 -1,-1 V 1 c 0,-0.552 0.448,-1 1,-1 h 5.424 c 0.553,0 1,0.448 1,1 v 4.705 c 0,0.552 -0.447,1 -1,1 z m -4.424,-2 h 3.424 V 2 h -3.424 v 2.705 z"
       inkscape:connector-curvature="0"
       style="fill:#000000;fill-opacity:1;stroke:#ffffff;stroke-opacity:1" /><path
       
       d="M 31.361,48 H 16.639 c -0.552,0 -1,-0.447 -1,-1 V 20.371 c -0.012,-0.441 0.106,-2.438 2.99,-4.524 0.726,-0.525 1.605,-1.161 1.926,-1.449 C 20.552,14.339 20.55,14.284 20.55,14.223 V 5.706 c 0,-0.552 0.448,-1 1,-1 h 4.9 c 0.553,0 1,0.448 1,1 v 8.516 c 0,0.063 -0.002,0.122 -0.005,0.175 0.32,0.288 1.2,0.924 1.925,1.449 3.092,2.235 3.006,4.358 2.985,4.593 L 32.361,47 c 0,0.266 -0.105,0.52 -0.293,0.707 C 31.88,47.894 31.627,48 31.361,48 z M 17.639,46 H 30.361 L 30.359,20.354 c 0.002,-0.061 -0.016,-1.336 -2.161,-2.887 -2.465,-1.784 -2.843,-2.058 -2.756,-3.105 0.003,-0.04 0.008,-0.085 0.008,-0.139 V 6.706 h -2.9 v 7.517 c 0,0.054 0.004,0.099 0.008,0.139 0.087,1.048 -0.292,1.322 -2.757,3.105 -2.145,1.552 -2.161,2.826 -2.161,2.839 L 17.639,46 z"
       inkscape:connector-curvature="0"
       style="fill:#000000;fill-opacity:1;stroke:#ffffff;stroke-opacity:1" /></g></g><text
   x="0"
   y="63"
   fill="#000000"
   font-size="5px"
   font-weight="bold"
   font-family="'Helvetica Neue', Helvetica, Arial-Unicode, Arial, Sans-serif"
   id="text10">Created by Creative Stall</text>

<text
   x="0"
   y="68"
   fill="#000000"
   font-size="5px"
   font-weight="bold"
   font-family="'Helvetica Neue', Helvetica, Arial-Unicode, Arial, Sans-serif"
   id="text12">from the Noun Project</text>

</svg>