<?xml version="1.0" encoding="UTF-8" standalone="no"?>
<!-- Created with Inkscape (http://www.inkscape.org/) -->

<svg
   xmlns:dc="http://purl.org/dc/elements/1.1/"
   xmlns:cc="http://creativecommons.org/ns#"
   xmlns:rdf="http://www.w3.org/1999/02/22-rdf-syntax-ns#"
   xmlns:svg="http://www.w3.org/2000/svg"
   xmlns="http://www.w3.org/2000/svg"
   xmlns:sodipodi="http://sodipodi.sourceforge.net/DTD/sodipodi-0.dtd"
   xmlns:inkscape="http://www.inkscape.org/namespaces/inkscape"
   id="svg1"
   sodipodi:version="0.32"
   inkscape:version="0.48.0 r9654"
   width="210mm"
   height="297mm"
   sodipodi:docname="mapsymbol.svg"
   version="1.1">
  <defs
     id="defs3">
    <marker
       inkscape:stockid="Arrow2Mend"
       orient="auto"
       refY="0.0"
       refX="0.0"
       id="Arrow2Mend"
       style="overflow:visible;">
      <path
         id="path15821"
         style="font-size:12.0;fill-rule:evenodd;stroke-width:0.62500000;stroke-linejoin:round;"
         d="M 8.7185878,4.0337352 L -2.2072895,0.016013256 L 8.7185884,-4.0017078 C 6.9730900,-1.6296469 6.9831476,1.6157441 8.7185878,4.0337352 z "
         transform="scale(0.6) rotate(180) translate(0,0)" />
    </marker>
    <marker
       inkscape:stockid="Arrow2Lend"
       orient="auto"
       refY="0.0"
       refX="0.0"
       id="Arrow2Lend"
       style="overflow:visible;">
      <path
         id="path15827"
         style="font-size:12.0;fill-rule:evenodd;stroke-width:0.62500000;stroke-linejoin:round;"
         d="M 8.7185878,4.0337352 L -2.2072895,0.016013256 L 8.7185884,-4.0017078 C 6.9730900,-1.6296469 6.9831476,1.6157441 8.7185878,4.0337352 z "
         transform="scale(1.1) rotate(180) translate(1,0)" />
    </marker>
    <linearGradient
       id="linearGradient2853">
      <stop
         style="stop-color:#000;stop-opacity:1;"
         offset="0"
         id="stop2854" />
      <stop
         style="stop-color:#fff;stop-opacity:1;"
         offset="1"
         id="stop2855" />
    </linearGradient>
  </defs>
  <sodipodi:namedview
     id="base"
     pagecolor="#ffffff"
     bordercolor="#666666"
     borderopacity="1.0"
     inkscape:pageopacity="0.0"
     inkscape:pageshadow="2"
     inkscape:zoom="1.2689374"
     inkscape:cx="140.79226"
     inkscape:cy="794.73803"
     inkscape:window-width="1280"
     inkscape:window-height="968"
     inkscape:window-x="-4"
     inkscape:window-y="-4"
     showgrid="false"
     inkscape:grid-bbox="false"
     inkscape:current-layer="svg1"
     showguides="true"
     inkscape:guide-bbox="true"
     inkscape:window-maximized="0" />
  <metadata
     id="metadata4">
    <rdf:RDF>
      <cc:Work
         rdf:about="">
        <dc:format>image/svg+xml</dc:format>
        <dc:type
           rdf:resource="http://purl.org/dc/dcmitype/StillImage" />
      </cc:Work>
    </rdf:RDF>
  </metadata>
  <rect
     style="fill:#4d4d4d;fill-opacity:1;stroke:#ffffff;stroke-width:2;stroke-miterlimit:4;stroke-opacity:1;stroke-dasharray:none"
     id="rect4179"
     width="502.78287"
     height="568.97998"
     x="-0.78806096"
     y="2.6650107" />
  <g
     id="auto_symbol"
     transform="translate(153.67188,-200.95554)">
    <path
       style=""
       inkscape:connector-curvature="0"
       d="M -104.41041,273.32263"
       id="path3153" />
    <path
       style="stroke:none"
       inkscape:connector-curvature="0"
       d="m -29.21241,258.26563 -8.197,-21.167 c -1.533,-4.052 -4.883,-7.5 -11.223,-7.529 h -11.56 -19.757 -11.761 c -6.311,0.029 -9.661,3.477 -11.222,7.529 l -8.199,21.167 c -3.255,0.42 -9.016,4.245 -9.006,11.491 v 26.951 h 7.999 v 8.603 c -0.02,10.606 14.989,10.48 14.985,0 v -8.603 h 27.016 26.948 v 8.603 c 0.033,10.48 15.042,10.606 15.052,0 v -8.603 h 8 v -26.951 c -0.025,-7.246 -5.79,-11.071 -9.075,-11.491 z m -75.198,22.178 c -3.834,0.011 -6.938,-3.187 -6.922,-7.12 -0.016,-3.96 3.088,-7.161 6.922,-7.128 3.822,-0.033 6.926,3.168 6.921,7.128 0.005,3.933 -3.1,7.13 -6.921,7.12 z m 34.273,-22.377 h -0.067 -32.392 l 6.182,-16.668 c 0.746,-2.366 1.904,-4.059 4.639,-4.1 h 21.571 0.067 21.64 c 2.693,0.041 3.854,1.733 4.636,4.1 l 6.183,16.668 h -32.459 z m 34.274,22.377 c -3.861,0.011 -6.967,-3.187 -6.988,-7.12 0.021,-3.96 3.127,-7.161 6.988,-7.128 3.795,-0.033 6.898,3.168 6.922,7.128 -0.024,3.933 -3.127,7.13 -6.922,7.12 z"
       id="path3155" />
    <path
       style=""
       inkscape:connector-curvature="0"
       d="M -35.86341,273.32263"
       id="path3157" />
    <path
       inkscape:connector-curvature="0"
       id="path3170"
       d="m -107.02817,279.13038 c -2.57512,-1.08276 -4.48573,-4.9132 -3.64318,-7.30393 1.64477,-4.667 7.33029,-6.4849 10.46809,-3.3471 5.140669,5.14067 -0.18043,13.44483 -6.82491,10.65103 z"
       style="fill:#ffffff;stroke:none" />
    <path
       inkscape:connector-curvature="0"
       id="path3172"
       d="m -38.46687,279.13038 c -2.57512,-1.08276 -4.48573,-4.9132 -3.64318,-7.30393 1.64806,-4.67631 7.01507,-6.39357 10.33,-3.30524 5.34786,4.98229 0.0231,13.43047 -6.68682,10.60917 z"
       style="fill:#ffffff;stroke:none" />
    <path
       inkscape:connector-curvature="0"
       id="path3174"
       d="m -101.75933,257.17938 c 0,-0.90388 6.579075,-17.60965 7.257834,-18.42928 1.283161,-1.54949 47.361036,-1.4097 48.653476,0.1476 0.91041,1.09696 7.13356,16.77863 7.13356,17.97577 0,0.32619 -14.18509,0.59307 -31.522435,0.59307 -17.337341,0 -31.522435,-0.12922 -31.522435,-0.28716 z"
       style="fill:#ffffff;stroke:none" />
  </g>
  <g
     id="moto_symbol"
     transform="translate(24.077728,139.28157)"
     style="stroke:#ffffff;stroke-opacity:1">
    <path
       id="path3166"
       d="m 79.33,6.585 0,0 c 0.067,-0.642 0.023,-1.207 -0.251,-1.506 -0.004,-0.005 -0.017,0 -0.024,-0.004 -2.33,-0.766 -6.586,1.086 -6.954,3.901 -0.367,2.814 3.271,5.696 5.72,5.557 0.009,-0.002 0.018,0.006 0.025,0.002 0.293,-0.189 0.474,-0.617 0.581,-1.141 l 0.015,0.002 0.888,-6.811 z"
       inkscape:connector-curvature="0"
       style="stroke:#ffffff;stroke-opacity:1" />
    <path
       id="path3168"
       d="m 65.171,11.748 c -1.379,-2.462 -4.93,-4.231 -8.102,-4.225 -9.812,0.021 -13.346,3.233 -17.057,8.012 -0.06,0.077 -0.113,0.178 -0.157,0.296 -0.42,0.495 -0.675,1.132 -0.675,1.819 0,1.546 1.289,2.835 2.834,2.835 5.829,0 11.657,0 17.485,0 0.294,0 0.578,-0.047 0.848,-0.133 0.011,-0.001 0.021,-0.001 0.031,-0.002 1.924,-0.135 6.683,-5.227 4.793,-8.602 z"
       inkscape:connector-curvature="0"
       style="stroke:#ffffff;stroke-opacity:1" />
    <path
       id="path3170-1"
       d="M 14.536,53.024 C 6.521,53.024 0,46.502 0,38.488 0,30.472 6.521,23.95 14.536,23.95 c 8.015,0 14.537,6.522 14.537,14.538 0,8.014 -6.522,14.536 -14.537,14.536 l 0,0 z m 0,-24.212 c -5.335,0 -9.676,4.34 -9.676,9.676 0,5.335 4.34,9.675 9.676,9.675 5.336,0 9.676,-4.34 9.676,-9.675 0,-5.336 -4.34,-9.676 -9.676,-9.676 l 0,0 z"
       inkscape:connector-curvature="0"
       style="stroke:#ffffff;stroke-opacity:1" />
    <path
       id="path3172-7"
       d="m 84.147,52.956 c -8.741,0 -15.854,-7.11 -15.854,-15.853 0,-8.741 7.112,-15.852 15.854,-15.852 8.742,0 15.853,7.111 15.853,15.852 0,8.742 -7.112,15.853 -15.853,15.853 l 0,0 z m 0,-26.846 c -6.062,0 -10.992,4.931 -10.992,10.993 0,6.062 4.931,10.991 10.992,10.991 6.061,0 10.993,-4.93 10.993,-10.991 0,-6.061 -4.932,-10.993 -10.993,-10.993 l 0,0 z"
       inkscape:connector-curvature="0"
       style="stroke:#ffffff;stroke-opacity:1" />
    <path
       id="path3174-4"
       d="m 36.234,15.219 c -3.318,0 -6.639,0 -9.958,0 -1.265,0 -2.531,0 -3.796,0 -0.998,0 -2.046,-0.238 -3.033,-0.353 -3.616,-0.423 -7.231,-0.845 -10.847,-1.268 -1.539,-0.18 -2.836,1.426 -2.836,2.835 0,1.683 1.301,2.656 2.836,2.836 3.262,0.382 6.524,0.764 9.786,1.144 1.339,0.157 2.679,0.313 4.018,0.47 0.917,0.108 1.901,0.007 2.821,0.007 3.671,0 7.341,0 11.01,0 1.546,0 2.836,-1.29 2.836,-2.836 -10e-4,-1.545 -1.291,-2.835 -2.837,-2.835 l 0,0 z"
       inkscape:connector-curvature="0"
       style="stroke:#ffffff;stroke-opacity:1" />
    <path
       id="path3176"
       d="m 66.376,8.962 c 3.093,5.393 6.185,10.787 9.276,16.179 2.424,4.227 4.847,8.451 7.269,12.679 0.911,1.584 3.361,0.156 2.449,-1.434 C 82.279,30.994 79.186,25.601 76.094,20.207 73.67,15.983 71.247,11.757 68.825,7.531 67.916,5.946 65.465,7.373 66.376,8.962 l 0,0 z"
       inkscape:connector-curvature="0"
       style="stroke:#ffffff;stroke-opacity:1" />
    <path
       id="path3178"
       d="M 67.115,5.595 C 66.179,3.884 65.244,2.174 64.306,0.462 64.1,0.084 63.644,-0.069 63.24,0.029 61.175,0.528 59.109,1.028 57.043,1.527 55.859,1.813 56.362,3.635 57.547,3.35 59.368,2.909 61.189,2.47 63.01,2.028 c 0.824,1.508 1.648,3.014 2.473,4.521 0.585,1.07 2.217,0.116 1.632,-0.954 z"
       inkscape:connector-curvature="0"
       style="stroke:#ffffff;stroke-opacity:1" />
    <path
       id="path3180"
       d="m 66.925,24.67 c -6.649,0.004 -13.3,0.007 -19.951,0.011 -2.436,0.002 -4.872,0.003 -7.308,0.004 -1.031,0.001 -1.89,0.859 -1.89,1.89 0,1.031 0.859,1.892 1.89,1.89 6.65,-0.004 13.3,-0.008 19.952,-0.012 1.516,0 3.032,0 4.55,-0.002 -1.982,5.086 -3.967,10.171 -5.949,15.255 -6.24,0 -12.48,0 -18.72,0 -0.447,0 -0.894,0 -1.34,0 -1.803,-0.834 -3.605,-1.668 -5.409,-2.502 -0.935,-0.435 -2.028,-0.273 -2.585,0.678 -0.483,0.824 -0.257,2.153 0.677,2.586 1.498,0.693 2.994,1.387 4.49,2.079 0.612,0.282 1.273,0.693 1.927,0.874 0.351,0.096 0.742,0.066 1.101,0.066 3.559,0 7.116,0 10.674,0 3.488,0 6.976,0 10.464,0 0.907,0 1.513,-0.594 1.823,-1.389 2.373,-6.081 4.745,-12.164 7.118,-18.245 0.103,-0.264 0.204,-0.528 0.308,-0.791 0.457,-1.165 -0.688,-2.392 -1.822,-2.392 z"
       inkscape:connector-curvature="0"
       style="stroke:#ffffff;stroke-opacity:1" />
  </g>
  <g
     id="bici_symbol"
     transform="translate(211.98839,165.4928)"
     style="stroke:#ffffff;stroke-opacity:1;fill-opacity:1;stroke-width:1.5;stroke-miterlimit:4;stroke-dasharray:none">
    <path
       inkscape:label=""
       inkscape:transform-center-y="92.991191"
       inkscape:transform-center-x="-118.9972"
       style="fill-rule:evenodd;stroke:#ffffff;stroke-opacity:1;fill-opacity:1;stroke-width:1.5;stroke-miterlimit:4;stroke-dasharray:none"
       inkscape:connector-curvature="0"
       clip-rule="evenodd"
       d="m 32.369998,-8.7354121 c -2.241,0 -4.523,0.448 -6.616,1.27 -0.032,0.037 -0.032,0.037 -0.032,0.037 -2.02,-3.7709999 -4.036,-7.5459999 -6.053,-11.3169999 0.56,-1.384 1.121,-2.73 1.644,-4.075 2.58,0 4.673,-2.128 4.673,-4.705 0,-0.038 0,-0.038 0,-0.038 -5.493,0 -10.985,0 -16.4760002,0 -0.603,0 -1.157,0.562 -1.157,1.199 0,0.521 0.332,0.97 0.856,1.12 2.4270002,0.634 4.8600002,1.27 7.2840002,1.864 -0.674,1.568 -1.31,3.102 -1.939,4.635 -10.7220002,0 -21.4460002,0 -32.132,0 0,0 0.6,-1.98 0.711,-2.395 0.186,-0.709 0.299,-0.969 0.299,-1.718 0,-1.679 -1.044,-2.725 -2.5,-3.547 -0.038,-0.036 -0.076,-0.075 -0.076,-0.075 -0.154,-0.108 -0.264,-0.302 -0.264,-0.485 0,-0.299 0.302,-0.599 0.6,-0.599 0.41,0 0.787,0 1.156,0 1.984,0 3.961,0 5.904,0 0,-1.566 0,-3.136 0,-4.707 -2.169,0 -4.335,0 -6.461,0 -0.599,0 -1.199,0 -1.796,0 -2.575,0.04 -4.668,2.169 -4.668,4.745 0,1.906 1.158,3.622 2.916,4.37 0.035,0 0.072,0 0.072,0 0.223,0.113 0.337,0.298 0.337,0.562 0,0.035 0,0.073 0,0.111 0,0.037 0,0.037 0,0.037 -1.495,5.006 -2.986,10.011 -4.484,14.9789999 -0.035,-0.037 -0.072,-0.072 -0.11,-0.072 -2.576,-1.012 -3.622,-1.197 -6.39,-1.197 -9.75,0.001 -17.667,7.91900004 -17.667,17.671 0,9.7140001 7.917,17.6340001 17.665,17.6340001 9.715,0 17.637,-7.92 17.637,-17.6340001 0,-5.565 -2.466,-10.574 -6.839,-13.973 -0.037,-0.075 -0.074,-0.112 -0.074,-0.15 0.222,-0.632 0.411,-1.268 0.599,-1.867 6.722,4.632 13.4449998,9.229 20.13099979,13.824 0,0.035 0,0.074 0,0.074 -0.18799999,0.706 -0.29599999,1.379 -0.29599999,2.092 0,3.8840001 3.173,7.0620001 7.06,7.0620001 1.08,0 1.305,-0.076 2.316,-0.413 0.484,0.932 0.966,1.867 1.459,2.762 -0.784,0 -1.54,0 -2.279,0 0,0.786 0,1.571 0,2.356 0.82,0 1.636,0 2.459,0 0.3750002,0.373 0.8270002,0.56 1.3470002,0.56 0.486,0 0.97,-0.224 1.309,-0.596 0.674,0 1.311,0 1.947,0 0,-0.791 0,-1.575 0,-2.32 -0.979,0 -1.91,0 -2.846,0 -0.598,-1.194 -1.194,-2.388 -1.7570002,-3.586 1.4630002,-0.966 2.4290002,-2.351 2.8830002,-4.071 0.038,0 0.038,0 0.038,0 0.704,0 1.376,0 2.049,0 0.897,9.039 8.479,15.88 17.559,15.88 9.709,0 17.631,-7.92 17.631,-17.6340001 0.002,-9.75199996 -7.92,-17.67 -17.629,-17.67 z m -52.392,17.67 c 0,6.7980001 -5.527,12.3270001 -12.328,12.3270001 -6.832,0 -12.364,-5.529 -12.364,-12.3270001 0,-6.839 5.532,-12.369 12.364,-12.369 1.755,0 3.439,0.375 4.972,1.049 0.034,0.039 0.075,0.039 0.075,0.039 -0.487,1.56600004 -0.972,3.14000004 -1.458,4.707 -0.673,2.017 -2.353,3.55 -4.371,4.933 -0.113,0.073 -0.184,0.146 -0.26,0.183 -0.447,0.337 -0.75,0.86 -0.75,1.459 0,0.934 0.826,1.7540001 1.792,1.7540001 0.079,0 0.26,0 0.338,-0.031 3.364,-0.9390001 6.76,-3.7060001 7.805,-6.9940001 0.339,-1.04 0.638,-2.087 0.938,-3.09699996 0.034,0.036 0.034,0.036 0.034,0.036 2.02,2.20199996 3.213,5.11899996 3.213,8.33099996 z m 44.529,-9.55999996 c 0.039,-0.039 0.039,-0.078 0.039,-0.078 1.423,2.65299996 2.799,5.26599996 4.183,7.87899996 -2.876,0 -5.75,0 -8.592,0 0,-0.033 0,-0.074 0,-0.074 0.447,-3.137 1.909,-5.712 4.37,-7.72699996 z m -44.302,-10.60999994 c 0.335,-1.122 0.672,-2.245 0.97,-3.365 10.6059998,0 21.1829998,0 31.75,0 -2.235,5.4919999 -4.4780002,10.9819999 -6.6820002,16.4729999 -0.042,0 -0.079,0 -0.079,0 -0.11,0 -0.221,0 -0.296,0 -0.713,0 -1.498,0.114 -2.17,0.342 -0.074,0.034 -0.11,0.034 -0.151,0.034 -0.48,-0.934 -0.929,-1.83499996 -1.379,-2.72899996 0.747,0 1.497,0 2.203,0 0,-0.78300004 0,-1.56700004 0,-2.35600004 -0.824,0 -1.639,0 -2.465,0 -0.032,-0.037 -0.032,-0.037 -0.032,-0.037 -0.342,-0.367 -0.827,-0.561 -1.30900001,-0.561 -0.491,0 -0.935,0.193 -1.273,0.561 -0.035,0.037 -0.035,0.037 -0.035,0.037 -0.67299999,0 -1.31199999,0 -1.94299999,0 0,0.789 0,1.573 0,2.35600004 0.971,0 1.94299999,0 2.87799999,0 0.596,1.197 1.19300001,2.39299996 1.75700001,3.54899996 -0.189,0.111 -0.337,0.221 -0.49,0.332 -7.094,-4.892 -14.1939998,-9.783 -21.2539998,-14.6359999 z m 25.6639998,24.88 c -2.581,0 -4.708,-2.137 -4.708,-4.7100001 0,-2.615 2.126,-4.708 4.708,-4.708 2.579,0 4.7020002,2.093 4.7020002,4.708 0,2.5730001 -2.1230002,4.7100001 -4.7020002,4.7100001 z M 14.793998,7.1015879 c 0,0 0,0 0,0.041 -0.673,0 -1.383,0 -2.087,0 -0.374,-1.388 -1.011,-2.434 -2.057,-3.441 0,0 -0.039,-0.038 -0.08,-0.069 2.319,-5.791 4.67,-11.619 7.026,-17.4469999 1.457,2.799 2.951,5.6009999 4.45,8.4049999 0,0 -0.043,0 -0.083,0.036 -4.14,3.027 -6.642,7.396 -7.169,12.475 z m 17.559,14.1600001 c -6.124,0 -11.319,-4.445 -12.216,-10.497 0,-0.038 0,-0.076 0,-0.076 4.071,0 8.146,0 12.216,0 0.937,0 1.756,-0.8200001 1.756,-1.7540001 0,-0.263 -0.04,-0.522 -0.111,-0.746 -1.945,-3.661 -3.887,-7.28499996 -5.794,-10.91 1.273,-0.448 2.765,-0.713 4.149,-0.713 6.798,0 12.363,5.53 12.363,12.369 0,6.7980001 -5.565,12.3270001 -12.363,12.3270001 z"
       id="3456346" />
  </g>
  <g
     id="bus_symbol">
    <path
       id="path3235"
       d="M 225.8563,82.651141"
       inkscape:connector-curvature="0"
       style="" />
    <path
       id="path3237"
       d="M 169.6953,82.651141"
       inkscape:connector-curvature="0"
       style="" />
    <g
       transform="translate(157.0083,14.141141)"
       id="g3239"
       style="">
      <path
         id="path3241"
         d="M 77.619,14.775 C 76.521,9.247 72.997,7.044 67.688,4.845 62.499,2.668 50.02,0.079 40.794,0 31.551,0.079 19.072,2.668 13.846,4.846 8.575,7.045 5.051,9.248 3.971,14.776 L 0,45.284 v 42.091 h 6.84 v 6.564 c -0.027,8.071 11.745,8.071 11.75,0 V 87.375 H 40.327 40.381 63 v 6.564 c -0.014,8.071 11.759,8.071 11.75,0 v -6.564 h 6.84 V 45.284 L 77.619,14.775 z M 23.996,7.715 h 16.385 17.212 c 3.286,-0.009 3.286,4.949 0,4.965 H 40.327 23.996 c -3.302,-0.016 -3.302,-4.974 0,-4.965 z M 12.687,74.191 C 9.586,74.176 7.056,71.649 7.06,68.509 7.056,65.41 9.586,62.882 12.687,62.882 c 3.136,0 5.665,2.528 5.683,5.627 -0.018,3.14 -2.547,5.668 -5.683,5.682 z M 40.381,48.482 H 10.426 C 7.501,48.51 6.886,46.401 7.173,44.29 l 3.088,-22.177 c 0.425,-2.67 1.336,-4.443 4.854,-4.468 h 25.213 26.149 c 3.498,0.025 4.412,1.797 4.854,4.468 l 3.09,22.177 c 0.266,2.112 -0.348,4.22 -3.256,4.192 H 40.381 z m 28.467,25.709 c -3.1,-0.015 -5.628,-2.542 -5.628,-5.682 0,-3.099 2.528,-5.627 5.628,-5.627 3.137,0 5.667,2.528 5.681,5.627 -0.014,3.14 -2.544,5.668 -5.681,5.682 z"
         inkscape:connector-curvature="0"
         style="" />
      <path
         id="path3243"
         d="m 40.381,-0.007 c 0.135,0 0.277,0.006 0.414,0.007 0.137,-0.001 0.278,-0.007 0.414,-0.007 h -0.828 z"
         inkscape:connector-curvature="0"
         style="" />
    </g>
    <path
       inkscape:connector-curvature="0"
       id="path3263"
       d="m 164.88345,60.827638 c -0.81726,-2.129748 2.84081,-25.827469 4.2225,-27.35422 1.15873,-1.280386 3.45155,-1.391336 28.52299,-1.380239 14.99464,0.0066 27.68408,0.279825 28.19876,0.607084 0.51467,0.32726 1.26272,1.474369 1.66233,2.549131 1.08658,2.922414 3.62084,24.049364 3.0601,25.510632 -0.43593,1.136022 -3.8408,1.267401 -32.84631,1.267401 -28.24959,0 -32.41845,-0.152397 -32.82037,-1.199789 z"
       style="fill:#ffffff;stroke:none" />
    <path
       inkscape:connector-curvature="0"
       id="path3265"
       d="m 179.56275,25.363712 c -2.03843,-2.45615 0.26224,-2.772664 18.58966,-2.557476 17.47474,0.205176 18.07084,0.264166 18.07084,1.788297 0,1.523417 -0.59588,1.583195 -17.81984,1.787654 -15.3601,0.182335 -17.96075,0.04175 -18.84066,-1.018475 z"
       style="fill:#ffffff;stroke:none" />
    <path
       inkscape:connector-curvature="0"
       id="path3267"
       d="m 166.68169,86.400119 c -3.82344,-3.007519 -1.84126,-8.611473 3.04597,-8.611473 2.95239,0 5.12239,2.220059 5.12239,5.240547 0,1.752953 -3.32805,5.004245 -5.12239,5.004245 -0.53325,0 -1.90393,-0.734993 -3.04597,-1.633319 z"
       style="fill:#ffffff;stroke:none" />
    <path
       inkscape:connector-curvature="0"
       id="path3269"
       d="m 222.49192,86.099107 c -2.3452,-2.345202 -2.46652,-4.626026 -0.35821,-6.734339 3.18292,-3.18292 8.68414,-1.140253 8.6566,3.214296 -0.0149,2.34957 -0.66899,3.37858 -2.89135,4.548338 -2.46007,1.294877 -3.23036,1.148386 -5.40704,-1.028295 z"
       style="fill:#ffffff;stroke:none" />
  </g>
  <g
     id="piedi_symbol"
     style="fill:#00cb00;fill-opacity:1;stroke:#ffffff;stroke-opacity:1;stroke-width:2;stroke-miterlimit:4;stroke-dasharray:none">
    <path
       id="path3320"
       d="m 350.36081,31.482529 c 4.143,0.322 7.76,-2.774 8.081,-6.887 0.322,-4.137 -2.749,-7.753 -6.886,-8.075 -4.144,-0.322 -7.76,2.75 -8.082,6.886 -0.322,4.136 2.762,7.754 6.887,8.076 z"
       inkscape:connector-curvature="0"
       style="fill:#00cb00;fill-opacity:1;stroke:#ffffff;stroke-opacity:1;stroke-width:2;stroke-miterlimit:4;stroke-dasharray:none" />
    <path
       id="path3322"
       d="m 344.00681,34.554529 c 1.474,-1.016 3.294,-1.709 5.264,-1.561 2.582,0.223 4.712,1.809 5.976,3.765 l 7.58,15.012 10.33,7.109 c 0.892,0.669 1.412,1.784 1.338,2.973 -0.148,1.858 -1.784,3.245 -3.666,3.096 -0.546,-0.024 -0.991,-0.248 -1.536,-0.495 l -11.271,-7.753 c -0.347,-0.297 -0.619,-0.62 -0.842,-1.016 l -2.849,-5.624 -3.388,14.987 13.321,15.73 c 0.297,0.496 0.495,1.041 0.619,1.61 l 3.592,19.000001 c -0.025,0.421 0.049,0.693 0.024,1.04 -0.223,2.799 -2.675,4.881 -5.475,4.657 -2.304,-0.173 -4.038,-1.907 -4.583,-4.013 l -3.394,-17.811001 -10.805,-11.84 -2.527,11.544 c -0.074,0.545 -0.792,1.684 -1.016,2.154 l -10.366,17.489001 c -1.053,1.611 -2.774,2.627 -4.769,2.478 -2.799,-0.223 -4.892,-2.675 -4.669,-5.475 0.062,-0.792 0.396,-1.61 0.682,-2.180001 l 9.66,-16.2 8.026,-35.671 -5.252,4.26 -2.774,12.708 c -0.371,1.61 -1.857,2.948 -3.616,2.799 -1.858,-0.149 -3.258,-1.759 -3.121,-3.642 0.024,-0.148 0.049,-0.297 0.074,-0.446 l 3.319,-14.813 c 0.173,-0.669 0.545,-1.214 1.04,-1.635 l 15.074,-12.236 z"
       inkscape:connector-curvature="0"
       style="fill:#00cb00;fill-opacity:1;stroke:#ffffff;stroke-opacity:1;stroke-width:2;stroke-miterlimit:4;stroke-dasharray:none" />
  </g>
  <g
     id="school_symbol"
     transform="translate(75.653848,282.12582)">
    <path
       inkscape:label=""
       style="fill:#ffd435;fill-opacity:1;stroke:#ffffff;stroke-width:3;stroke-linejoin:bevel;stroke-miterlimit:4;stroke-opacity:1;stroke-dasharray:none"
       inkscape:connector-curvature="0"
       d="m 7.6693765,-21.395089 v -21.698 h 7.5029995 c 3.121,0 3.658,2.048 4.045,2.447 1.161,1.124 1.947,1.798 3.596,1.798 h 8.314 v -18.427 h -8.314 c -1.648,0 -2.435,-0.674 -3.596,-1.823 -0.387,-0.35 -0.924,-2.422 -4.045,-2.422 H 3.7113765 v 37.578 l -5.243,-3.421 -46.1800005,29.8130004 h 10.824 V 38.479911 h 26.217 V 9.8659114 H 7.5433765 V 38.479911 H 33.772376 V 2.4499114 h 10.787 L 7.6693765,-21.395089 z"
       id="34346" />
  </g>
  <g
     id="people_symbol"
     transform="translate(200.95554,266.3646)"
     style="stroke:#ffffff;stroke-opacity:1;stroke-width:3;stroke-miterlimit:4;stroke-dasharray:none;stroke-linejoin:miter">
    <g
       transform="translate(-49.211942,-40.831552)"
       id="g3072"
       style="stroke:#ffffff;stroke-opacity:1;stroke-width:3;stroke-miterlimit:4;stroke-dasharray:none;stroke-linejoin:miter">
      <g
         id="g3048"
         style="stroke:#ffffff;stroke-opacity:1;stroke-width:3;stroke-miterlimit:4;stroke-dasharray:none;stroke-linejoin:miter">
	<path
   inkscape:connector-curvature="0"
   d="M 60.082,20.987 H 39.918 c -3.231,0 -5.851,2.618 -5.851,5.85 v 27.44 c 0,3.231 2.62,5.852 5.851,5.852 h 0.033 v 19.436 c 0,3.231 2.546,5.852 5.689,5.852 h 8.722 c 3.14,0 5.688,-2.62 5.688,-5.852 V 60.129 h 0.032 c 3.231,0 5.851,-2.62 5.851,-5.852 v -27.44 c -0.001,-3.232 -2.62,-5.85 -5.851,-5.85 z"
   id="path3050"
   style="stroke:#ffffff;stroke-opacity:1;stroke-width:3;stroke-miterlimit:4;stroke-dasharray:none;stroke-linejoin:miter" />

	<circle
   d="M 59.55,9.5500002 C 59.55,14.82432 55.274319,19.1 50,19.1 44.725681,19.1 40.45,14.82432 40.45,9.5500002 40.45,4.2756807 44.725681,0 50,0 c 5.274319,0 9.55,4.2756807 9.55,9.5500002 z"
   sodipodi:ry="9.5500002"
   sodipodi:rx="9.5500002"
   sodipodi:cy="9.5500002"
   sodipodi:cx="50"
   cx="50"
   cy="9.5500002"
   r="9.5500002"
   id="circle3052"
   style="stroke:#ffffff;stroke-opacity:1;stroke-width:3;stroke-miterlimit:4;stroke-dasharray:none;stroke-linejoin:miter" />

</g>
      <g
         id="g3054"
         style="stroke:#ffffff;stroke-opacity:1;stroke-width:3;stroke-miterlimit:4;stroke-dasharray:none;stroke-linejoin:miter">
	<path
   inkscape:connector-curvature="0"
   d="M 94.986,23.268 H 77.708 c -2.771,0 -5.014,2.245 -5.014,5.014 v 23.514 c 0,2.771 2.243,5.016 5.014,5.016 h 0.028 v 16.654 c 0,2.77 2.182,5.014 4.873,5.014 h 7.475 c 2.691,0 4.874,-2.244 4.874,-5.014 V 56.811 h 0.027 c 2.771,0 5.015,-2.245 5.015,-5.016 V 28.281 c 0,-2.768 -2.244,-5.013 -5.014,-5.013 z"
   id="path3056"
   style="stroke:#ffffff;stroke-opacity:1;stroke-width:3;stroke-miterlimit:4;stroke-dasharray:none;stroke-linejoin:miter" />

	<circle
   d="m 94.531,13.469 c 0,4.519898 -3.664101,8.184 -8.184,8.184 -4.519898,0 -8.184,-3.664102 -8.184,-8.184 0,-4.5198985 3.664102,-8.1840002 8.184,-8.1840002 4.519899,0 8.184,3.6641017 8.184,8.1840002 z"
   sodipodi:ry="8.184"
   sodipodi:rx="8.184"
   sodipodi:cy="13.469"
   sodipodi:cx="86.347"
   cx="86.347"
   cy="13.469"
   r="8.184"
   id="circle3058"
   style="stroke:#ffffff;stroke-opacity:1;stroke-width:3;stroke-miterlimit:4;stroke-dasharray:none;stroke-linejoin:miter" />

</g>
      <g
         id="g3060"
         style="stroke:#ffffff;stroke-opacity:1;stroke-width:3;stroke-miterlimit:4;stroke-dasharray:none;stroke-linejoin:miter">
	<path
   inkscape:connector-curvature="0"
   d="M 22.292,23.268 H 5.014 C 2.245,23.268 0,25.513 0,28.281 v 23.514 c 0,2.771 2.245,5.016 5.014,5.016 h 0.028 v 16.654 c 0,2.77 2.184,5.014 4.874,5.014 h 7.474 c 2.692,0 4.874,-2.244 4.874,-5.014 V 56.811 h 0.028 c 2.769,0 5.014,-2.245 5.014,-5.016 V 28.281 C 27.305,25.513 25.06,23.268 22.292,23.268 z"
   id="path3062"
   style="stroke:#ffffff;stroke-opacity:1;stroke-width:3;stroke-miterlimit:4;stroke-dasharray:none;stroke-linejoin:miter" />

	<circle
   d="m 21.835999,13.469 c 0,4.519346 -3.663653,8.182999 -8.182999,8.182999 -4.519346,0 -8.1829997,-3.663653 -8.1829997,-8.182999 0,-4.519346 3.6636537,-8.1829997 8.1829997,-8.1829997 4.519346,0 8.182999,3.6636537 8.182999,8.1829997 z"
   sodipodi:ry="8.1829996"
   sodipodi:rx="8.1829996"
   sodipodi:cy="13.469"
   sodipodi:cx="13.653"
   cx="13.653"
   cy="13.469"
   r="8.1829996"
   id="circle3064"
   style="stroke:#ffffff;stroke-opacity:1;stroke-width:3;stroke-miterlimit:4;stroke-dasharray:none;stroke-linejoin:miter" />

</g>
    </g>
  </g>
  <g
     id="uomo_symbol"
     transform="translate(295.52285,269.51684)">
    <circle
       transform="translate(-18.603513,-52.851409)"
       style="stroke:#ffffff;stroke-width:1.5;stroke-linejoin:round;stroke-miterlimit:4;stroke-opacity:1;stroke-dasharray:none"
       id="circle3887"
       r="8.1590004"
       cy="8.1590004"
       cx="18.118"
       sodipodi:cx="18.118"
       sodipodi:cy="8.1590004"
       sodipodi:rx="8.1590004"
       sodipodi:ry="8.1590004"
       d="m 26.277,8.1590004 c 0,4.5060916 -3.652908,8.1590006 -8.159,8.1590006 -4.506091,0 -8.1590004,-3.652909 -8.1590004,-8.1590006 C 9.9589996,3.6529089 13.611909,0 18.118,0 c 4.506092,0 8.159,3.6529089 8.159,8.1590004 z" />
    <path
       style="stroke:#ffffff;stroke-width:1.5;stroke-linejoin:round;stroke-miterlimit:4;stroke-opacity:1;stroke-dasharray:none"
       id="path3889"
       d="m -10.131513,42.574591 c 0,2.524 2.05,4.574 4.574,4.574 2.529,0 4.576,-2.05 4.576,-4.574 l 0.004,-38.374 h 2.037 l -0.013,38.374 c 0,2.524 2.048,4.574 4.574,4.574 2.526,0 4.573,-2.05 4.573,-4.574 l 0.02,-66.158 h 2.006 v 24.38 c 0,4.905 6.398,4.905 6.384,0 v -24.9 c 0,-5.418 -3.184,-10.728 -9.523,-10.728 l -18.288,-0.008 c -5.777,0 -9.396,4.71 -9.396,10.587 v 25.05 c 0,4.869 6.433,4.869 6.433,0 v -24.38 h 2.048 l -0.009,66.157 z"
       inkscape:connector-curvature="0" />
  </g>
  <g
     id="donna_symbol"
     transform="translate(358.56773,256.11981)"
     style="stroke:#ffffff;stroke-opacity:1;stroke-width:1.50000000000000000;stroke-miterlimit:4;stroke-dasharray:none;stroke-linejoin:round">
    <g
       transform="translate(-22.130848,-48.122865)"
       id="g3928"
       style="stroke:#ffffff;stroke-opacity:1;stroke-width:1.50000000000000000;stroke-miterlimit:4;stroke-dasharray:none;stroke-linejoin:round">
      <path
         inkscape:connector-curvature="0"
         d="m 29.775,18.047 c 5.697,0 8.008,4.695 8.871,7.283 l 6.999,23.008 c 1.396,4.949 -4.899,6.998 -6.4,2.175 L 32.947,29.388 H 31.114 L 42.03,66.966 H 31.973 v 29.296 c 0,4.996 -7.514,4.971 -7.514,0 V 66.774 h -3.063 l 0.005,29.447 c 0,5.037 -7.545,5.037 -7.545,0 L 13.854,66.966 H 3.765 L 14.596,29.388 h -1.694 l -6.299,21.2 c -1.5,4.621 -7.85,2.724 -6.396,-2.228 L 7.2,25.33 c 0.749,-2.625 3.045,-7.283 8.795,-7.283 h 13.78 z"
         id="path3918"
         style="stroke:#ffffff;stroke-opacity:1;stroke-width:1.50000000000000000;stroke-miterlimit:4;stroke-dasharray:none;stroke-linejoin:round" />
      <circle
         d="m 31.088999,8.1639996 c 0,4.5088524 -3.655147,8.1639994 -8.164,8.1639994 -4.508852,0 -8.163999,-3.655147 -8.163999,-8.1639994 C 14.761,3.6551471 18.416147,0 22.924999,0 c 4.508853,0 8.164,3.6551471 8.164,8.1639996 z"
         sodipodi:ry="8.1639996"
         sodipodi:rx="8.1639996"
         sodipodi:cy="8.1639996"
         sodipodi:cx="22.924999"
         cx="22.924999"
         cy="8.1639996"
         r="8.1639996"
         id="circle3920"
         style="stroke:#ffffff;stroke-opacity:1;stroke-width:1.50000000000000000;stroke-miterlimit:4;stroke-dasharray:none;stroke-linejoin:round" />
    </g>
  </g>
  <g
     id="baby_symbol"
     style="stroke:#ffffff;stroke-opacity:1;stroke-width:2;stroke-miterlimit:4;stroke-dasharray:none"
     transform="translate(73.289667,393.24241)">
    <g
       transform="translate(-33.593458,-44.183)"
       id="g3980"
       style="stroke:#ffffff;stroke-opacity:1;stroke-width:2;stroke-miterlimit:4;stroke-dasharray:none">
      <path
         inkscape:connector-curvature="0"
         d="M 35.171,28.241 C 42.967,28.233 49.292,21.911 49.292,14.12 49.292,6.306 42.968,-0.017 35.171,0 27.365,-0.018 21.042,6.306 21.048,14.12 c -0.006,7.791 6.317,14.113 14.123,14.121 l 0,0 z"
         id="path3964"
         style="stroke:#ffffff;stroke-opacity:1;stroke-width:2;stroke-miterlimit:4;stroke-dasharray:none" />
      <path
         inkscape:connector-curvature="0"
         d="M 35.171,14.12"
         id="path3966"
         style="stroke:#ffffff;stroke-opacity:1;stroke-width:2;stroke-miterlimit:4;stroke-dasharray:none" />
      <path
         inkscape:connector-curvature="0"
         d="M 35.171,57.791 H 20.198 V 46.956 L 8.798,58.47 C 3.633,63.635 -3.359,57.022 1.822,51.835 L 20.707,32.892 c 1.542,-1.508 3.22,-2.476 5.899,-2.497 h 8.565 l 0,0 h 8.393 c 2.646,0.021 4.442,0.96 6.011,2.497 l 19.113,19.169 c 4.917,4.896 -2.264,11.573 -6.976,6.578 L 49.972,46.9 V 57.79 H 35.171 l 0,10e-4 0,0 z"
         id="path3968"
         style="stroke:#ffffff;stroke-opacity:1;stroke-width:2;stroke-miterlimit:4;stroke-dasharray:none" />
      <path
         inkscape:connector-curvature="0"
         d="m 49.915,63.349 -11.227,11.228 8.278,8.221 -8.448,8.452 c -5.001,4.977 1.873,12.104 7.029,6.977 L 58.875,84.332 c 2.887,-2.939 3.678,-8.34 0.626,-11.399 -0.031,-0.022 -9.586,-9.584 -9.586,-9.584 l 0,0 z"
         id="path3970"
         style="stroke:#ffffff;stroke-opacity:1;stroke-width:2;stroke-miterlimit:4;stroke-dasharray:none" />
      <path
         inkscape:connector-curvature="0"
         d="m 20.198,63.349 11.229,11.228 -8.221,8.221 8.45,8.452 c 4.967,4.977 -1.906,12.104 -7.035,6.977 L 11.236,84.332 C 8.379,81.393 7.587,75.992 10.67,72.933 c 0,-0.022 9.528,-9.584 9.528,-9.584 l 0,0 z"
         id="path3972"
         style="stroke:#ffffff;stroke-opacity:1;stroke-width:2;stroke-miterlimit:4;stroke-dasharray:none" />
    </g>
  </g>
</svg>
